<svg width="349" height="61" viewBox="0 0 349 61" fill="none" xmlns="http://www.w3.org/2000/svg">
<path d="M347.403 33.3342C347.413 33.5219 347.298 33.8163 346.78 34.1962C346.277 34.5654 345.486 34.9436 344.394 35.3207C342.216 36.0728 338.955 36.7816 334.705 37.4361C326.213 38.7439 313.864 39.822 298.557 40.6209C267.946 42.2186 225.554 42.6977 178.637 41.6788C131.72 40.6599 89.1727 38.3359 58.3115 35.4033C42.8785 33.9367 30.3802 32.319 21.7228 30.6387C17.3903 29.7979 14.0426 28.9455 11.7759 28.0969C10.6395 27.6714 9.80535 27.2579 9.2599 26.866C8.69853 26.4626 8.55045 26.1624 8.54006 25.9748C8.52967 25.7872 8.64482 25.4927 9.16282 25.1128C9.66613 24.7437 10.4564 24.3654 11.5484 23.9883C13.7264 23.2362 16.9877 22.5274 21.2374 21.8729C29.7293 20.5651 42.0783 19.487 57.3858 18.6881C87.9962 17.0905 130.389 16.6113 177.305 17.6302C224.222 18.6492 266.77 20.9731 297.631 23.9058C313.064 25.3723 325.562 26.99 334.22 28.6703C338.552 29.5112 341.9 30.3635 344.167 31.2121C345.303 31.6376 346.137 32.0511 346.683 32.4431C347.244 32.8464 347.392 33.1466 347.403 33.3342Z" stroke="#7B61FF"/>
<path d="M339.793 48.851C339.645 49.084 339.292 49.3678 338.543 49.6786C337.802 49.9863 336.773 50.2777 335.446 50.5423C332.797 51.0704 329.103 51.4652 324.463 51.7237C315.191 52.2402 302.25 52.2071 286.56 51.6544C255.187 50.549 212.884 47.3676 167.088 42.3712C121.293 37.3747 80.6888 31.5106 52.0631 26.0699C37.7477 23.3491 26.4411 20.7365 18.9807 18.3945C15.2469 17.2224 12.4987 16.1248 10.8186 15.1244C9.97684 14.6231 9.42607 14.1594 9.14561 13.7402C8.86228 13.3168 8.89089 12.9976 9.03854 12.7646C9.18619 12.5316 9.53976 12.2477 10.2884 11.9369C11.0294 11.6292 12.0586 11.3379 13.3858 11.0733C16.0344 10.5452 19.7284 10.1504 24.3687 9.89188C33.6405 9.37541 46.5817 9.40842 62.271 9.96118C93.644 11.0665 135.948 14.248 181.743 19.2444C227.539 24.2408 268.143 30.1049 296.768 35.5457C311.084 38.2665 322.39 40.879 329.851 43.221C333.584 44.3931 336.333 45.4908 338.013 46.4912C338.855 46.9925 339.405 47.4562 339.686 47.8753C339.969 48.2987 339.94 48.618 339.793 48.851Z" stroke="#7B61FF"/>
</svg>
