<svg width="280" height="91" viewBox="0 0 280 91" fill="none" xmlns="http://www.w3.org/2000/svg">
<path d="M278.377 57.9326C278.377 58.3295 278.208 58.7476 277.794 59.1865C277.377 59.6283 276.734 60.0669 275.849 60.4918C274.079 61.3414 271.436 62.0919 267.986 62.7304C261.095 64.0059 251.099 64.8144 238.719 65.1319C213.966 65.7666 179.754 64.4366 141.954 60.989C104.155 57.5415 69.9407 52.6307 45.1833 47.4803C32.8013 44.9044 22.8027 42.2722 15.9086 39.7393C12.4576 38.4715 9.81316 37.2387 8.04169 36.0661C7.15582 35.4797 6.51204 34.9237 6.09463 34.4058C5.68002 33.8914 5.50979 33.4423 5.5095 33.0454C5.50922 32.6485 5.67882 32.2304 6.09274 31.7916C6.50945 31.3497 7.15252 30.9111 8.03765 30.4863C9.80766 29.6366 12.4507 28.8861 15.9003 28.2477C22.7917 26.9722 32.7877 26.1636 45.1676 25.8461C69.9209 25.2114 104.132 26.5415 141.932 29.989C179.732 33.4366 213.946 38.3474 238.703 43.4978C251.085 46.0737 261.084 48.7059 267.978 51.2387C271.429 52.5066 274.073 53.7393 275.845 54.9119C276.731 55.4983 277.374 56.0543 277.792 56.5722C278.206 57.0866 278.377 57.5357 278.377 57.9326Z" stroke="#7B61FF"/>
<path d="M272.218 75.3617C272.054 75.7246 271.71 76.0822 271.112 76.4244C270.509 76.7689 269.68 77.079 268.612 77.3428C266.476 77.8706 263.499 78.1866 259.755 78.2882C252.274 78.4912 241.852 77.8365 229.226 76.4024C203.98 73.5348 169.998 67.56 133.267 59.1557C96.5361 50.7515 64.0271 41.513 41.1618 33.3726C29.7261 29.3013 20.7195 25.5107 14.8053 22.2428C11.8449 20.607 9.68432 19.1157 8.38001 17.8008C7.72779 17.1433 7.30733 16.5472 7.09956 16.0173C6.8932 15.4911 6.90615 15.0576 7.06993 14.6947C7.23371 14.3319 7.57788 13.9742 8.17621 13.6321C8.77866 13.2876 9.60812 12.9775 10.6762 12.7136C12.8123 12.1859 15.7887 11.8699 19.5333 11.7683C27.0141 11.5652 37.4362 12.2199 50.0623 13.6541C75.3076 16.5216 109.29 22.4965 146.021 30.9007C182.752 39.3049 215.261 48.5435 238.126 56.6838C249.562 60.7551 258.568 64.5458 264.483 67.8136C267.443 69.4494 269.604 70.9408 270.908 72.2557C271.56 72.9132 271.981 73.5092 272.188 74.0391C272.395 74.5654 272.382 74.9989 272.218 75.3617Z" stroke="#7B61FF"/>
</svg>
