<svg width="23" height="20" viewBox="0 0 23 20" fill="none" xmlns="http://www.w3.org/2000/svg">
<g filter="url(#filter0_d_192_3027)">
<path fill-rule="evenodd" clip-rule="evenodd" d="M16.8454 1.1409C16.9528 1.23795 17.0173 1.3737 17.0247 1.51829C17.0321 1.66288 16.9817 1.80448 16.8847 1.91196L9.59128 9.97262L5.18116 5.76291C5.08213 5.6617 5.02628 5.52599 5.0254 5.3844C5.02452 5.24281 5.07867 5.10641 5.17642 5.00398C5.27418 4.90155 5.4079 4.84109 5.54938 4.83536C5.69086 4.82963 5.82903 4.87908 5.93474 4.97328L9.5334 8.40811L16.0749 1.17967C16.123 1.12647 16.1812 1.08328 16.246 1.05257C16.3108 1.02185 16.3811 1.00422 16.4528 1.00067C16.5244 0.997119 16.5961 1.00772 16.6636 1.03188C16.7312 1.05603 16.7933 1.09327 16.8465 1.14144L16.8454 1.1409Z" fill="#7B61FF"/>
<path fill-rule="evenodd" clip-rule="evenodd" d="M16.8454 1.1409C16.9528 1.23795 17.0173 1.3737 17.0247 1.51829C17.0321 1.66288 16.9817 1.80448 16.8847 1.91196L9.59128 9.97262L5.18116 5.76291C5.08213 5.6617 5.02628 5.52599 5.0254 5.3844C5.02452 5.24281 5.07867 5.10641 5.17642 5.00398C5.27418 4.90155 5.4079 4.84109 5.54938 4.83536C5.69086 4.82963 5.82903 4.87908 5.93474 4.97328L9.5334 8.40811L16.0749 1.17967C16.123 1.12647 16.1812 1.08328 16.246 1.05257C16.3108 1.02185 16.3811 1.00422 16.4528 1.00067C16.5244 0.997119 16.5961 1.00772 16.6636 1.03188C16.7312 1.05603 16.7933 1.09327 16.8465 1.14144L16.8454 1.1409Z" stroke="#7B61FF" stroke-width="2"/>
</g>
<defs>
<filter id="filter0_d_192_3027" x="0.0253906" y="0" width="22" height="19.4053" filterUnits="userSpaceOnUse" color-interpolation-filters="sRGB">
<feFlood flood-opacity="0" result="BackgroundImageFix"/>
<feColorMatrix in="SourceAlpha" type="matrix" values="0 0 0 0 0 0 0 0 0 0 0 0 0 0 0 0 0 0 127 0" result="hardAlpha"/>
<feOffset dy="4"/>
<feGaussianBlur stdDeviation="2"/>
<feComposite in2="hardAlpha" operator="out"/>
<feColorMatrix type="matrix" values="0 0 0 0 0 0 0 0 0 0 0 0 0 0 0 0 0 0 0.25 0"/>
<feBlend mode="normal" in2="BackgroundImageFix" result="effect1_dropShadow_192_3027"/>
<feBlend mode="normal" in="SourceGraphic" in2="effect1_dropShadow_192_3027" result="shape"/>
</filter>
</defs>
</svg>
