<svg width="13" height="9" viewBox="0 0 13 9" fill="none" xmlns="http://www.w3.org/2000/svg">
<path fill-rule="evenodd" clip-rule="evenodd" d="M11.8454 0.140899C11.9528 0.237955 12.0173 0.373699 12.0247 0.51829C12.0321 0.66288 11.9817 0.80448 11.8847 0.91196L4.59128 8.97262L0.181157 4.76291C0.0821301 4.6617 0.0262844 4.52599 0.0254013 4.3844C0.0245181 4.24281 0.0786663 4.10641 0.176423 4.00398C0.27418 3.90155 0.407901 3.84109 0.549379 3.83536C0.690856 3.82963 0.829027 3.87908 0.934745 3.97328L4.5334 7.40811L11.0749 0.17967C11.123 0.126472 11.1812 0.0832818 11.246 0.0525678C11.3108 0.0218539 11.3811 0.00421883 11.4528 0.000668901C11.5244 -0.00288103 11.5961 0.00772431 11.6636 0.0318793C11.7312 0.0560343 11.7933 0.0932652 11.8465 0.141444L11.8454 0.140899Z" fill="#7B61FF"/>
</svg>
