<svg width="28" height="24" viewBox="0 0 28 24" fill="none" xmlns="http://www.w3.org/2000/svg">
<path d="M14.0004 23.76L13.5204 23.36C3.20039 14.96 0.400391 12 0.400391 7.2C0.400391 3.2 3.60039 0 7.60039 0C10.8804 0 12.7204 1.84 14.0004 3.28C15.2804 1.84 17.1204 0 20.4004 0C24.4004 0 27.6004 3.2 27.6004 7.2C27.6004 12 24.8004 14.96 14.4804 23.36L14.0004 23.76ZM7.60039 1.6C4.48039 1.6 2.00039 4.08 2.00039 7.2C2.00039 11.28 4.56039 14 14.0004 21.68C23.4404 14 26.0004 11.28 26.0004 7.2C26.0004 4.08 23.5204 1.6 20.4004 1.6C17.6004 1.6 16.0804 3.28 14.8804 4.64L14.0004 5.68L13.1204 4.64C11.9204 3.28 10.4004 1.6 7.60039 1.6Z" fill="white"/>
</svg>
