<svg width="279" height="281" viewBox="0 0 279 281" fill="none" xmlns="http://www.w3.org/2000/svg">
<path d="M129.802 65.6011C131.525 54.5264 147.475 54.5264 149.198 65.6011C150.643 74.894 162.443 78.0405 168.323 70.7012C171.825 66.331 176.998 66.158 180.83 68.4019C184.663 70.6466 187.091 75.2745 185.086 80.5087C181.721 89.2928 190.348 97.9713 199.127 94.5601C204.36 92.5267 208.939 94.9714 211.142 98.8416C213.345 102.713 213.135 107.95 208.774 111.494C201.468 117.432 204.586 129.265 213.897 130.734C225.025 132.49 225.025 148.51 213.897 150.266C204.586 151.735 201.468 163.568 208.774 169.506C213.135 173.05 213.345 178.287 211.142 182.158C208.939 186.029 204.36 188.473 199.127 186.44C190.348 183.029 181.721 191.707 185.086 200.491C187.091 205.725 184.663 210.353 180.83 212.598C176.998 214.842 171.825 214.669 168.323 210.299C162.443 202.959 150.643 206.106 149.198 215.399C147.475 226.474 131.525 226.474 129.802 215.399C128.357 206.106 116.557 202.959 110.677 210.299C107.175 214.669 102.002 214.842 98.1701 212.598C94.3369 210.353 91.909 205.725 93.914 200.491C97.2787 191.707 88.6523 183.029 79.8734 186.44C74.6402 188.473 70.0613 186.029 67.8584 182.158C65.6547 178.287 65.8653 173.05 70.2259 169.506C77.5315 163.568 74.4142 151.735 65.1031 150.266C53.9753 148.51 53.9753 132.49 65.1031 130.734C74.4142 129.265 77.5315 117.432 70.2259 111.494C65.8653 107.95 65.6547 102.713 67.8584 98.8416C70.0613 94.9714 74.6402 92.5267 79.8734 94.5601C88.6523 97.9713 97.2787 89.2928 93.914 80.5087C91.909 75.2745 94.3369 70.6466 98.1701 68.4019C102.002 66.158 107.175 66.331 110.677 70.7012C116.557 78.0405 128.357 74.894 129.802 65.6011Z" fill="#EEF233" stroke="white"/>
<path d="M199.5 141C199.5 174.417 172.633 201.5 139.5 201.5C106.367 201.5 79.5 174.417 79.5 141C79.5 107.583 106.367 80.5 139.5 80.5C172.633 80.5 199.5 107.583 199.5 141Z" fill="#EEF233" stroke="white"/>
</svg>
