<svg width="24" height="24" viewBox="0 0 24 24" fill="none" xmlns="http://www.w3.org/2000/svg">
<path d="M21.6732 18.5531C21.0303 17.98 20.4675 17.323 19.9999 16.5998C19.4894 15.6015 19.1834 14.5113 19.0999 13.3931V10.0998C19.1043 8.34351 18.4672 6.64609 17.3084 5.32642C16.1495 4.00675 14.5486 3.15568 12.8065 2.93311V2.07311C12.8065 1.83706 12.7128 1.61069 12.5459 1.44378C12.379 1.27687 12.1526 1.18311 11.9165 1.18311C11.6805 1.18311 11.4541 1.27687 11.2872 1.44378C11.1203 1.61069 11.0265 1.83706 11.0265 2.07311V2.94644C9.30004 3.18506 7.71852 4.04128 6.57489 5.35651C5.43126 6.67174 4.80302 8.35687 4.80654 10.0998V13.3931C4.72304 14.5113 4.41705 15.6015 3.90654 16.5998C3.44712 17.3213 2.89333 17.9783 2.25987 18.5531C2.18876 18.6156 2.13176 18.6925 2.09268 18.7787C2.0536 18.8649 2.03332 18.9585 2.0332 19.0531V19.9598C2.0332 20.1366 2.10344 20.3062 2.22847 20.4312C2.35349 20.5562 2.52306 20.6264 2.69987 20.6264H21.2332C21.41 20.6264 21.5796 20.5562 21.7046 20.4312C21.8296 20.3062 21.8999 20.1366 21.8999 19.9598V19.0531C21.8997 18.9585 21.8795 18.8649 21.8404 18.7787C21.8013 18.6925 21.7443 18.6156 21.6732 18.5531ZM3.41987 19.2931C4.04014 18.6939 4.58627 18.0224 5.04654 17.2931C5.68961 16.0874 6.06482 14.7571 6.14654 13.3931V10.0998C6.1201 9.31846 6.25115 8.53982 6.5319 7.81022C6.81265 7.08061 7.23734 6.41496 7.7807 5.85291C8.32406 5.29085 8.97496 4.84388 9.69466 4.53862C10.4144 4.23336 11.1881 4.07604 11.9699 4.07604C12.7516 4.07604 13.5254 4.23336 14.2451 4.53862C14.9648 4.84388 15.6157 5.29085 16.159 5.85291C16.7024 6.41496 17.1271 7.08061 17.4078 7.81022C17.6886 8.53982 17.8196 9.31846 17.7932 10.0998V13.3931C17.8749 14.7571 18.2501 16.0874 18.8932 17.2931C19.3535 18.0224 19.8996 18.6939 20.5199 19.2931H3.41987Z" fill="white"/>
<path d="M11.9996 22.8535C12.4195 22.8438 12.8225 22.6859 13.1373 22.4078C13.4521 22.1296 13.6583 21.7491 13.7196 21.3335H10.2129C10.2759 21.7604 10.4918 22.1498 10.8204 22.4294C11.1491 22.709 11.5681 22.8597 11.9996 22.8535Z" fill="white"/>
</svg>
