<svg width="28" height="24" viewBox="0 0 28 24" fill="none" xmlns="http://www.w3.org/2000/svg">
<path d="M13.6 23.76L13.12 23.36C2.8 14.96 0 12 0 7.2C0 3.2 3.2 0 7.2 0C10.48 0 12.32 1.84 13.6 3.28C14.88 1.84 16.72 0 20 0C24 0 27.2 3.2 27.2 7.2C27.2 12 24.4 14.96 14.08 23.36L13.6 23.76ZM7.2 1.6C4.08 1.6 1.6 4.08 1.6 7.2C1.6 11.28 4.16 14 13.6 21.68C23.04 14 25.6 11.28 25.6 7.2C25.6 4.08 23.12 1.6 20 1.6C17.2 1.6 15.68 3.28 14.48 4.64L13.6 5.68L12.72 4.64C11.52 3.28 10 1.6 7.2 1.6Z" fill="white"/>
<path d="M7.2 1.6C4.08 1.6 1.6 4.08 1.6 7.2C1.6 11.28 4.16 14 13.6 21.68C23.04 14 25.6 11.28 25.6 7.2C25.6 4.08 23.12 1.6 20 1.6C17.2 1.6 15.68 3.28 14.48 4.64L13.6 5.68L12.72 4.64C11.52 3.28 10 1.6 7.2 1.6Z" fill="white"/>
</svg>
