<svg width="28" height="24" viewBox="0 0 28 24" fill="none" xmlns="http://www.w3.org/2000/svg">
<path d="M6 0.5L15 4L19 0.5L24.5 2.5L26.5 9.5L21 17L13.5 22L1.5 11.5V5L6 0.5Z" fill="#7B61FF"/>
<path d="M13.6 22.7837L13.5935 22.7783C8.4222 18.5692 5.20164 15.7744 3.26636 13.4501C1.37055 11.1732 0.75 9.39843 0.75 7.2C0.75 3.61421 3.61421 0.75 7.2 0.75C10.1413 0.75 11.79 2.37268 13.0394 3.77827L13.6 4.4089L14.1606 3.77827C15.41 2.37268 17.0587 0.75 20 0.75C23.5858 0.75 26.45 3.61421 26.45 7.2C26.45 9.39843 25.8294 11.1732 23.9336 13.4501C21.9984 15.7744 18.7778 18.5692 13.6065 22.7783L13.6065 22.7783L13.6 22.7837ZM13.1267 22.2618L13.6 22.6469L14.0733 22.2618C18.7833 18.4299 21.8397 15.7869 23.7124 13.5746C25.6207 11.3203 26.35 9.45439 26.35 7.2C26.35 3.66579 23.5342 0.85 20 0.85C16.8365 0.85 15.1172 2.78421 13.9176 4.14378L13.9125 4.14961L13.9075 4.15554L13.6 4.51891L13.2925 4.15554L13.2875 4.14961L13.2824 4.14378C12.0828 2.78421 10.3635 0.85 7.2 0.85C3.66579 0.85 0.85 3.66579 0.85 7.2C0.85 9.45439 1.57929 11.3203 3.48756 13.5746C5.36033 15.7869 8.41665 18.4299 13.1267 22.2618Z" fill="white" stroke="#7B61FF" stroke-width="1.5"/>
<rect x="14" y="4.2981" width="3" height="3" transform="rotate(-50 14 4.2981)" fill="#7B61FF"/>
<rect x="3.55432" y="2" width="2" height="2" transform="rotate(51 3.55432 2)" fill="#7B61FF"/>
</svg>
