<svg width="20" height="20" viewBox="0 0 20 20" fill="none" xmlns="http://www.w3.org/2000/svg">
<g clip-path="url(#clip0_160_3996)">
<path fill-rule="evenodd" clip-rule="evenodd" d="M4.193 19.0611C3.797 18.6941 3.538 17.9281 3.487 17.4661C2.897 17.1001 2.199 16.3621 2.138 14.9721C1.085 14.2411 0.285 12.8891 1.284 10.9121C0.704 10.3721 0.0569992 8.72408 0.889 7.39608C1.858 5.84408 3.964 5.73608 6.063 6.01308C5.503 4.44808 5.293 3.00408 6.179 1.52508C7.06 0.213076 8.276 7.62939e-05 8.692 7.62939e-05C9.83 7.62939e-05 10.61 0.979076 10.926 2.28308C11.041 2.64708 11.172 3.50708 11.223 3.73308C11.488 5.17308 12.379 6.32508 13.893 7.18608C14.5666 7.57296 15.2779 7.88995 16.016 8.13208H18.356C18.877 8.13208 19.5 8.65908 19.5 9.29708V16.9331C19.426 17.6551 19.025 18.0151 18.298 18.0151H15.188C13.824 18.3251 12.464 18.6571 11.109 19.0101C9.8 19.3631 9.513 19.4801 8.597 19.7321C6.544 20.2641 5.119 19.9721 4.193 19.0621V19.0611ZM6.575 18.6371C7.394 18.6371 8.431 18.3851 8.891 18.2381C9.053 18.1871 9.337 18.1031 9.636 18.0171L9.936 17.9301L10.224 17.8481L10.784 17.6901C10.784 17.6901 12.194 17.3121 14.957 16.6701C15.06 16.6581 15.115 16.6501 15.123 16.6481V9.26808C13.612 8.68608 12.435 7.98008 11.593 7.15008C10.329 5.90608 9.978 4.78208 9.771 3.34308C9.653 2.62008 9.462 2.03708 9.174 1.63808C9.09128 1.51852 8.97086 1.43014 8.832 1.38708C8.685 1.34007 8.482 1.33708 8.049 1.57108C7.616 1.80708 7.059 2.42408 6.954 3.34308C6.884 4.23608 7.124 5.01008 7.446 5.82408C7.55716 6.10142 7.67621 6.37553 7.803 6.64608C8.021 7.05908 7.693 7.74508 7.017 7.59608C6.111 7.34108 3.863 6.99608 2.595 7.59608C1.858 8.02308 1.675 8.71208 2.048 9.66208C2.17131 9.87986 2.34015 10.0685 2.543 10.2151C2.713 10.3171 3.045 10.7591 2.646 11.2601C2.25 11.8951 1.671 13.1881 3.136 13.9941C3.23824 14.0503 3.32364 14.1327 3.3834 14.2329C3.44317 14.3331 3.47513 14.4474 3.476 14.5641C3.496 14.8381 3.452 15.8541 4.206 16.3081C4.386 16.4051 4.603 16.4851 4.726 16.7181C4.804 16.8721 4.829 17.2461 4.829 17.2461C4.932 17.8781 5.074 18.4681 6.575 18.6371ZM16.481 16.6521H18.139V9.49508H16.481V16.6521Z" fill="white"/>
</g>
<defs>
<clipPath id="clip0_160_3996">
<rect width="20" height="20" fill="white" transform="translate(20 20) rotate(-180)"/>
</clipPath>
</defs>
</svg>
