<svg width="12" height="12" viewBox="0 0 12 12" fill="none" xmlns="http://www.w3.org/2000/svg">
<path d="M5.12006 0.746781C5.30094 -0.228966 6.69906 -0.228966 6.87994 0.74678C7.00933 1.44476 7.86094 1.72147 8.37588 1.23284C9.09575 0.549765 10.2268 1.37156 9.79965 2.26727C9.49406 2.908 10.0204 3.63243 10.7242 3.5398C11.7081 3.4103 12.1401 4.73999 11.268 5.21354C10.6442 5.55228 10.6442 6.44772 11.268 6.78646C12.1401 7.26001 11.7081 8.5897 10.7242 8.4602C10.0204 8.36757 9.49406 9.092 9.79965 9.73273C10.2268 10.6284 9.09575 11.4502 8.37588 10.7672C7.86094 10.2785 7.00933 10.5552 6.87994 11.2532C6.69906 12.229 5.30094 12.229 5.12006 11.2532C4.99067 10.5552 4.13906 10.2785 3.62412 10.7672C2.90426 11.4502 1.77316 10.6284 2.20035 9.73273C2.50594 9.092 1.97961 8.36757 1.27581 8.4602C0.291922 8.5897 -0.14012 7.26001 0.731976 6.78646C1.35581 6.44772 1.35581 5.55228 0.731976 5.21354C-0.14012 4.73999 0.291922 3.4103 1.27581 3.5398C1.97961 3.63243 2.50594 2.908 2.20035 2.26727C1.77316 1.37156 2.90426 0.549765 3.62412 1.23284C4.13906 1.72147 4.99067 1.44476 5.12006 0.746781Z" fill="#7B61FF"/>
</svg>
