<svg width="34" height="33" viewBox="0 0 34 33" fill="none" xmlns="http://www.w3.org/2000/svg">
<path d="M16.7622 1.15881C16.8371 0.928486 17.1629 0.928486 17.2378 1.15881L20.5525 11.3604C20.7868 12.0815 21.4587 12.5697 22.2168 12.5697H32.9434C33.1856 12.5697 33.2863 12.8796 33.0904 13.0219L24.4124 19.3269C23.799 19.7725 23.5424 20.5624 23.7766 21.2834L27.0914 31.4851C27.1662 31.7154 26.9026 31.9069 26.7066 31.7646L18.0286 25.4596C17.4153 25.014 16.5847 25.014 15.9714 25.4596L7.29335 31.7646C7.09743 31.9069 6.83381 31.7154 6.90864 31.4851L10.2234 21.2834C10.4576 20.5624 10.201 19.7725 9.58763 19.3269L0.909607 13.0219C0.713678 12.8796 0.814373 12.5697 1.05655 12.5697H11.7832C12.5413 12.5697 13.2132 12.0815 13.4475 11.3604L16.7622 1.15881Z" fill="white" stroke="white" stroke-width="1.5"/>
</svg>
