<svg width="48" height="66" viewBox="0 0 48 66" fill="none" xmlns="http://www.w3.org/2000/svg">
<path d="M30.792 2.63926e-06H25.5083C23.9337 2.63926e-06 25.0534 1.71232 25.0534 1.71232V3.73914C25.0534 4.75256 25.5083 4.75256 25.5083 4.75256C25.5083 4.75256 24.4236 21.5962 23.8287 22.5397C23.2339 23.4832 20.6095 25.1955 20.6095 28.9696L20.6095 56.7511C20.6095 56.7511 20.3296 59.372 28.6925 59.372C37.0553 59.372 36.2155 56.7511 36.2155 56.7511V28.9696C36.2155 25.5799 33.9411 23.4832 33.1713 22.5397C32.4015 21.5962 30.792 4.75256 30.792 4.75256C31.3519 4.61277 31.3519 3.73914 31.3519 3.73914V1.71232C31.9817 0.454288 31.6318 8.57761e-06 30.792 2.63926e-06Z" fill="#7B61FF"/>
<path d="M18.0028 15.9563L20.695 21.8944L26.0042 18.094L25.358 24.5787L31.8616 23.9344L28.0502 29.2282L34.0056 31.9125L28.0502 34.5969L31.8616 39.8906L25.358 39.2463L26.0042 45.731L20.695 41.9307L18.0028 47.8687L15.3106 41.9307L10.0014 45.731L10.6476 39.2463L4.14397 39.8906L7.95541 34.5969L2 31.9125L7.95541 29.2282L4.14397 23.9344L10.6476 24.5787L10.0014 18.094L15.3106 21.8944L18.0028 15.9563Z" stroke="#EEF233"/>
<path d="M26.2077 58.2099L26.2709 58.2215L26.271 58.2211L26.2712 58.2198L26.2723 58.2145C26.2732 58.2097 26.2746 58.2025 26.2765 58.1931C26.2803 58.1743 26.2861 58.1465 26.2937 58.1109C26.3091 58.0395 26.3321 57.9366 26.363 57.8106C26.4249 57.5586 26.5179 57.2149 26.6428 56.8478C26.7678 56.4806 26.9242 56.0913 27.1123 55.7476C27.301 55.403 27.5189 55.1091 27.7648 54.9275C28.2546 54.5658 28.8801 54.6301 29.5399 54.7012L29.5529 54.7026C30.196 54.7719 30.8718 54.8448 31.4059 54.4503C31.9401 54.0557 32.0672 53.3899 32.1881 52.7564L32.1905 52.7436C32.3146 52.0935 32.4352 51.4782 32.9249 51.1165C33.4147 50.7547 34.0402 50.8191 34.7 50.8902L34.713 50.8916C35.3561 50.9609 36.0319 51.0337 36.566 50.6392C37.1002 50.2447 37.2273 49.5789 37.3482 48.9453L37.3506 48.9325C37.4747 48.2825 37.5953 47.6671 38.0851 47.3054C38.331 47.1238 38.6764 47.0016 39.062 46.9221C39.4466 46.8428 39.8656 46.807 40.2544 46.7949C40.6429 46.7827 40.9998 46.7942 41.2596 46.8086C41.3894 46.8159 41.4949 46.8239 41.5678 46.83C41.6043 46.8331 41.6326 46.8357 41.6518 46.8376C41.6614 46.8385 41.6686 46.8393 41.6735 46.8398L41.679 46.8403L41.6806 46.8405L41.688 46.7768L41.6946 46.7191C41.6953 46.7131 41.6953 46.7131 41.6953 46.7131L41.6948 46.7131L41.6932 46.7129L41.6874 46.7123C41.6824 46.7118 41.6748 46.711 41.665 46.7101C41.6454 46.7082 41.6165 46.7055 41.5795 46.7024C41.5055 46.6961 41.3988 46.688 41.2676 46.6807C41.0052 46.6661 40.6444 46.6545 40.2512 46.6668C39.8581 46.6791 39.4311 46.7153 39.0366 46.7966C38.6432 46.8777 38.2766 47.0049 38.0088 47.2027C37.4746 47.5972 37.3475 48.263 37.2266 48.8966L37.2242 48.9094C37.1001 49.5595 36.9795 50.1748 36.4897 50.5365C36 50.8982 35.3745 50.8339 34.7147 50.7628L34.7017 50.7614C34.0586 50.6921 33.3828 50.6192 32.8486 51.0138C32.3145 51.4083 32.1874 52.0741 32.0665 52.7076L32.0641 52.7204C31.94 53.3705 31.8194 53.9858 31.3296 54.3476C30.8399 54.7093 30.2144 54.645 29.5545 54.5738L29.5416 54.5724C28.8985 54.5031 28.2227 54.4303 27.6885 54.8248C27.4207 55.0226 27.1919 55.3352 26.9994 55.6868C26.8064 56.0393 26.6473 56.4361 26.5209 56.8074C26.3945 57.179 26.3004 57.5264 26.238 57.7809C26.2068 57.9082 26.1834 58.0124 26.1679 58.0848C26.1601 58.121 26.1542 58.1493 26.1503 58.1686C26.1484 58.1782 26.1469 58.1856 26.1459 58.1906L26.1448 58.1963L26.1445 58.1982C26.1445 58.1982 26.1444 58.1984 26.2077 58.2099Z" fill="white"/>
<path d="M28.1176 60.7809L28.1808 60.7925L28.1809 60.7921L28.1811 60.7908L28.1822 60.7854C28.1831 60.7806 28.1845 60.7735 28.1864 60.764C28.1902 60.7452 28.1959 60.7175 28.2036 60.6818C28.2189 60.6104 28.242 60.5075 28.2729 60.3815C28.3347 60.1295 28.4278 59.7858 28.5527 59.4188C28.6777 59.0515 28.834 58.6623 29.0222 58.3185C29.2109 57.9739 29.4288 57.6801 29.6747 57.4984C30.1645 57.1367 30.79 57.201 31.4498 57.2721L31.4628 57.2735C32.1058 57.3429 32.7816 57.4157 33.3158 57.0212C33.85 56.6267 33.9771 55.9609 34.098 55.3273L34.1004 55.3145C34.2245 54.6644 34.3451 54.0491 34.8348 53.6874C35.3246 53.3257 35.9501 53.39 36.6099 53.4611L36.6229 53.4625C37.266 53.5318 37.9418 53.6047 38.4759 53.2102C39.0101 52.8156 39.1372 52.1498 39.2581 51.5163L39.2605 51.5035C39.3846 50.8534 39.5052 50.2381 39.9949 49.8764C40.2409 49.6947 40.5863 49.5725 40.9719 49.493C41.3565 49.4137 41.7755 49.378 42.1643 49.3658C42.5528 49.3537 42.9097 49.3651 43.1695 49.3796C43.2993 49.3868 43.4048 49.3948 43.4777 49.401C43.5142 49.404 43.5425 49.4067 43.5617 49.4085C43.5712 49.4095 43.5785 49.4102 43.5834 49.4107L43.5888 49.4113L43.5905 49.4114L43.5979 49.3478C43.6052 49.2841 43.6052 49.2841 43.6052 49.2841L43.6046 49.284L43.6031 49.2839L43.5973 49.2833C43.5922 49.2827 43.5847 49.282 43.5749 49.281C43.5553 49.2791 43.5264 49.2764 43.4894 49.2733C43.4154 49.2671 43.3087 49.259 43.1775 49.2517C42.9151 49.237 42.5543 49.2255 42.161 49.2378C41.768 49.2501 41.341 49.2862 40.9465 49.3676C40.5531 49.4487 40.1865 49.5758 39.9187 49.7737C39.3845 50.1682 39.2574 50.834 39.1365 51.4675L39.1341 51.4803C39.01 52.1304 38.8894 52.7457 38.3996 53.1074C37.9099 53.4692 37.2844 53.4048 36.6245 53.3337L36.6116 53.3323C35.9685 53.263 35.2927 53.1902 34.7585 53.5847C34.2244 53.9792 34.0973 54.645 33.9764 55.2786L33.974 55.2914C33.8499 55.9415 33.7293 56.5568 33.2395 56.9185C32.7498 57.2802 32.1243 57.2159 31.4644 57.1448L31.4515 57.1434C30.8084 57.0741 30.1326 57.0012 29.5984 57.3957C29.3306 57.5936 29.1017 57.9062 28.9093 58.2578C28.7163 58.6103 28.5571 59.007 28.4308 59.3784C28.3044 59.7499 28.2103 60.0974 28.1479 60.3519C28.1167 60.4792 28.0933 60.5833 28.0777 60.6557C28.07 60.6919 28.0641 60.7202 28.0602 60.7395C28.0583 60.7492 28.0568 60.7565 28.0558 60.7616L28.0547 60.7673L28.0544 60.7688L28.0544 60.7691C28.0544 60.7691 28.0543 60.7693 28.1176 60.7809Z" fill="white"/>
<path d="M30.0907 63.3634L30.0274 63.3518C29.9642 63.3402 29.9642 63.3402 29.9642 63.3402L29.9643 63.3397L29.9646 63.3382L29.9657 63.3325C29.9667 63.3275 29.9682 63.3201 29.9701 63.3104C29.974 63.2911 29.9798 63.2629 29.9876 63.2267C30.0032 63.1542 30.0265 63.0501 30.0578 62.9228C30.1202 62.6683 30.2142 62.3208 30.3407 61.9493C30.467 61.578 30.6262 61.1812 30.8191 60.8287C31.0116 60.4771 31.2405 60.1645 31.5083 59.9667C32.0425 59.5721 32.7183 59.645 33.3613 59.7143L33.3743 59.7157C34.0342 59.7868 34.6596 59.8511 35.1494 59.4894C35.6392 59.1277 35.7597 58.5124 35.8838 57.8623L35.8863 57.8495C36.0072 57.2159 36.1342 56.5501 36.6684 56.1556C37.2026 55.7611 37.8784 55.8339 38.5214 55.9033L38.5344 55.9047C39.1943 55.9758 39.8197 56.0401 40.3095 55.6784C40.7993 55.3166 40.9198 54.7013 41.0439 54.0512L41.0464 54.0385C41.1673 53.4049 41.2944 52.7391 41.8285 52.3446C42.0964 52.1467 42.463 52.0196 42.8564 51.9385C43.2508 51.8572 43.6779 51.821 44.0709 51.8087C44.4642 51.7964 44.825 51.808 45.0873 51.8226C45.2186 51.8299 45.3253 51.838 45.3993 51.8442C45.4363 51.8474 45.4651 51.85 45.4848 51.8519C45.4946 51.8529 45.5021 51.8537 45.5072 51.8542L45.513 51.8548L45.5149 51.855C45.5149 51.855 45.5151 51.855 45.5078 51.9187L45.5004 51.9824L45.5001 51.9823L45.4987 51.9822L45.4933 51.9816L45.4897 51.9812L45.4827 51.9805C45.4794 51.9802 45.4757 51.9799 45.4715 51.9795C45.4524 51.9776 45.4241 51.975 45.3876 51.9719C45.3147 51.9657 45.2092 51.9577 45.0793 51.9505C44.8196 51.936 44.4627 51.9246 44.0742 51.9367C43.6854 51.9489 43.2664 51.9846 42.8818 52.0639C42.4961 52.1434 42.1507 52.2657 41.9048 52.4473C41.4151 52.809 41.2945 53.4243 41.1704 54.0744L41.1679 54.0872C41.047 54.7207 40.92 55.3866 40.3858 55.7811C39.8516 56.1756 39.1758 56.1027 38.5328 56.0334L38.5198 56.032C37.8599 55.9609 37.2345 55.8966 36.7447 56.2583C36.255 56.62 36.1344 57.2354 36.0103 57.8854L36.0078 57.8982C35.8869 58.5318 35.7599 59.1976 35.2257 59.5921C34.6915 59.9866 34.0157 59.9138 33.3727 59.8445L33.3597 59.8431C32.6998 59.772 32.0744 59.7076 31.5846 60.0694C31.3387 60.251 31.1208 60.5448 30.9321 60.8895C30.7439 61.2332 30.5875 61.6224 30.4626 61.9897C30.3377 62.3568 30.2446 62.7004 30.1828 62.9525C30.1519 63.0784 30.1288 63.1813 30.1135 63.2527C30.1058 63.2884 30.1001 63.3162 30.0963 63.335C30.0944 63.3444 30.093 63.3515 30.092 63.3563L30.091 63.3617L30.0907 63.3634Z" fill="white"/>
<path d="M31.9373 65.9227L32.0005 65.9342L32.0008 65.9325L32.0019 65.9272C32.0028 65.9224 32.0042 65.9152 32.0061 65.9058C32.0099 65.887 32.0157 65.8592 32.0233 65.8236C32.0386 65.7522 32.0617 65.6493 32.0926 65.5233C32.1545 65.2713 32.2475 64.9276 32.3724 64.5606C32.4974 64.1933 32.6538 63.804 32.8419 63.4603C33.0306 63.1157 33.2485 62.8218 33.4944 62.6402C33.9842 62.2785 34.6097 62.3428 35.2695 62.4139L35.2825 62.4153C35.9255 62.4846 36.6013 62.5575 37.1355 62.163C37.6697 61.7685 37.7968 61.1026 37.9177 60.4691L37.9201 60.4563C38.0442 59.8062 38.1648 59.1909 38.6545 58.8292C39.1443 58.4675 39.7698 58.5318 40.4296 58.6029L40.4426 58.6043C41.0857 58.6736 41.7615 58.7464 42.2956 58.3519C42.8298 57.9574 42.9569 57.2916 43.0778 56.6581L43.0802 56.6453C43.2043 55.9952 43.3249 55.3799 43.8147 55.0181C44.0606 54.8365 44.406 54.7143 44.7916 54.6348C45.1762 54.5555 45.5952 54.5198 45.984 54.5076C46.3725 54.4954 46.7294 54.5069 46.9892 54.5213C47.119 54.5286 47.2245 54.5366 47.2974 54.5427C47.3339 54.5458 47.3622 54.5485 47.3814 54.5503C47.3909 54.5512 47.3982 54.552 47.4031 54.5525L47.4085 54.553L47.4099 54.5532L47.4102 54.5532L47.4176 54.4895C47.4249 54.4259 47.4249 54.4258 47.4249 54.4258L47.4243 54.4258L47.4228 54.4256L47.417 54.425C47.4119 54.4245 47.4044 54.4238 47.3946 54.4228C47.375 54.4209 47.3461 54.4182 47.3091 54.4151C47.2351 54.4088 47.1284 54.4007 46.9972 54.3934C46.7348 54.3788 46.374 54.3673 45.9807 54.3796C45.5877 54.3918 45.1607 54.428 44.7662 54.5093C44.3728 54.5905 44.0062 54.7176 43.7384 54.9154C43.2042 55.3099 43.0771 55.9758 42.9562 56.6093L42.9538 56.6221C42.8297 57.2722 42.7091 57.8875 42.2193 58.2492C41.7296 58.6109 41.1041 58.5466 40.4443 58.4755L40.4313 58.4741C39.7882 58.4048 39.1124 58.332 38.5782 58.7265C38.0441 59.121 37.917 59.7868 37.7961 60.4204L37.7937 60.4331C37.6696 61.0832 37.549 61.6985 37.0592 62.0603C36.5695 62.422 35.944 62.3577 35.2841 62.2866L35.2712 62.2852C34.6281 62.2158 33.9523 62.143 33.4181 62.5375C33.1503 62.7353 32.9214 63.048 32.729 63.3995C32.536 63.7521 32.3768 64.1488 32.2505 64.5201C32.1241 64.8917 32.03 65.2391 31.9676 65.4936C31.9364 65.6209 31.913 65.7251 31.8974 65.7975C31.8897 65.8337 31.8838 65.862 31.8799 65.8813C31.878 65.8909 31.8765 65.8983 31.8755 65.9033L31.8744 65.909L31.8741 65.9105L31.8741 65.9109C31.8741 65.9109 31.874 65.9111 31.9373 65.9227Z" fill="white"/>
</svg>
